<?xml version="1.0" encoding="utf-8"?>
<!-- Generator: Adobe Illustrator 19.0.1, SVG Export Plug-In . SVG Version: 6.00 Build 0)  -->
<svg version="1.1" id="Layer_1" xmlns="http://www.w3.org/2000/svg" xmlns:xlink="http://www.w3.org/1999/xlink" x="0px" y="0px"
	 viewBox="0 0 421.2 423.7" style="enable-background:new 0 0 421.2 423.7;" xml:space="preserve">
<style type="text/css">
	.st0{fill:#CF663A;}
	.st1{fill:#A74728;}
	.st2{fill:#FDCC99;}
	.st3{fill:#D06639;}
	.st4{fill:#FDCD99;}
</style>
<g>
	<path class="st1" d="M83.4,422.1H65.1l-7.3-18.9H24.7l-6.9,18.9H0L32.4,339h17.7L83.4,422.1z M52.5,389.2L41,358.4l-11.2,30.8H52.5
		z"/>
	<path class="st1" d="M127.1,422.1V339h35.3c8.9,0,15.3,0.7,19.4,2.2c4,1.5,7.2,4.1,9.7,8c2.4,3.8,3.6,8.2,3.6,13.1
		c0,6.2-1.8,11.4-5.5,15.4c-3.7,4.1-9.1,6.6-16.4,7.7c3.6,2.1,6.6,4.4,9,7c2.4,2.5,5.5,7,9.5,13.5l10.1,16.2h-20.1L169.6,404
		c-4.3-6.5-7.3-10.5-8.8-12.2c-1.6-1.7-3.3-2.8-5-3.5c-1.8-0.6-4.6-0.9-8.4-0.9h-3.4v34.7H127.1z M143.9,374.2h12.4
		c8,0,13.1-0.3,15.1-1c2-0.7,3.6-1.9,4.7-3.5c1.1-1.7,1.7-3.7,1.7-6.2c0-2.8-0.7-5.1-2.2-6.8c-1.5-1.7-3.6-2.8-6.3-3.3
		c-1.4-0.2-5.4-0.3-12.2-0.3h-13.1V374.2z"/>
	<path class="st1" d="M245.7,422.1V339h61.6v14.1h-44.8v18.4h41.7v14h-41.7v22.6h46.4v14H245.7z"/>
	<path class="st1" d="M353.7,395.1l16.3-1.6c1,5.5,3,9.5,6,12.1c3,2.6,7.1,3.9,12.2,3.9c5.4,0,9.5-1.1,12.2-3.4c2.7-2.3,4.1-5,4.1-8
		c0-2-0.6-3.6-1.7-5c-1.2-1.4-3.2-2.6-6-3.6c-2-0.7-6.4-1.9-13.4-3.6c-9-2.2-15.3-5-18.9-8.2c-5.1-4.6-7.7-10.1-7.7-16.7
		c0-4.2,1.2-8.2,3.6-11.9c2.4-3.7,5.9-6.5,10.4-8.4c4.5-1.9,10-2.9,16.3-2.9c10.4,0,18.3,2.3,23.5,6.9c5.3,4.6,8,10.7,8.3,18.3
		l-16.8,0.7c-0.7-4.3-2.3-7.3-4.6-9.2c-2.4-1.9-5.9-2.8-10.6-2.8c-4.9,0-8.7,1-11.4,3c-1.8,1.3-2.7,3-2.7,5.2c0,2,0.8,3.6,2.5,5
		c2.1,1.8,7.3,3.6,15.4,5.6c8.2,1.9,14.2,3.9,18.1,6c3.9,2.1,7,4.9,9.2,8.4c2.2,3.6,3.3,8,3.3,13.2c0,4.8-1.3,9.2-4,13.4
		c-2.6,4.2-6.4,7.2-11.2,9.3c-4.8,2-10.9,3-18.1,3c-10.5,0-18.6-2.4-24.2-7.3C358.1,411.5,354.8,404.4,353.7,395.1z"/>
</g>
<g>
	<circle class="st0" cx="210.6" cy="150" r="150"/>
	<path class="st1" d="M360.6,150c0-82.8-67.2-150-150-150v0C278.7,0,334,67.2,334,150c0,82.8-55.2,150-123.3,150
		C293.5,300,360.6,232.8,360.6,150z"/>
	<path class="st2" d="M87.3,150c0-82.8,55.2-150,123.3-150v0c-82.8,0-150,67.2-150,150c0,82.8,67.1,150,149.9,150
		C142.5,300,87.3,232.8,87.3,150z"/>
	<path class="st0" d="M210.6,300C210.6,300,210.6,300,210.6,300c0.1,0,0.1,0,0.1,0C210.7,300,210.6,300,210.6,300
		C210.6,300,210.6,300,210.6,300z"/>
	<path class="st1" d="M153.7,150c0-14,8-25.4,17.9-25.4c-14,0-25.4,11.4-25.4,25.4c0,14,11.4,25.4,25.4,25.4
		C161.7,175.4,153.7,164,153.7,150z"/>
	<path class="st2" d="M171.6,124.6c9.9,0,17.9,11.4,17.9,25.4c0,14-8,25.4-17.9,25.4c14,0,25.4-11.4,25.4-25.4
		C196.9,136,185.6,124.6,171.6,124.6z"/>
	<path class="st1" d="M240.9,191.2c0-9.9,5.4-17.9,12.1-17.9c-9.9,0-17.9,8-17.9,17.9c0,9.9,8,17.9,17.9,17.9
		C246.3,209.1,240.9,201.1,240.9,191.2z"/>
	<path class="st2" d="M252.9,173.4c6.7,0,12.1,8,12.1,17.9c0,9.9-5.4,17.9-12.1,17.9c9.9,0,17.9-8,17.9-17.9
		C270.8,181.4,262.8,173.4,252.9,173.4z"/>
	<path class="st1" d="M184.2,84.3c0-4.9,2.3-8.9,5.2-8.9c-4.9,0-8.9,4-8.9,8.9c0,4.9,4,8.9,8.9,8.9
		C186.6,93.2,184.2,89.2,184.2,84.3z"/>
	<path class="st2" d="M189.4,75.3c2.9,0,5.2,4,5.2,8.9c0,4.9-2.3,8.9-5.2,8.9c4.9,0,8.9-4,8.9-8.9C198.3,79.3,194.4,75.3,189.4,75.3
		z"/>
</g>
</svg>
